<?xml version="1.0" encoding="utf-8"?>
<!-- Generator: Adobe Illustrator 26.3.1, SVG Export Plug-In . SVG Version: 6.00 Build 0)  -->
<svg version="1.1"
	 id="svg3336" xmlns:dc="http://purl.org/dc/elements/1.1/" xmlns:sodipodi="http://sodipodi.sourceforge.net/DTD/sodipodi-0.dtd" xmlns:inkscape="http://www.inkscape.org/namespaces/inkscape" xmlns:svg="http://www.w3.org/2000/svg" xmlns:rdf="http://www.w3.org/1999/02/22-rdf-syntax-ns#" xmlns:cc="http://creativecommons.org/ns#"
	 xmlns="http://www.w3.org/2000/svg" xmlns:xlink="http://www.w3.org/1999/xlink" x="0px" y="0px" viewBox="0 0 1920 6479.4"
	 style="enable-background:new 0 0 1920 6479.4;" xml:space="preserve">
<style type="text/css">
	.st0{fill:none;stroke:#000000;stroke-width:2.2669;}
	.st1{fill:none;stroke:#000000;stroke-width:0.6359;}
	.st2{fill:none;stroke:#000000;stroke-width:0.2099;}
	.st3{fill:none;stroke:#000000;stroke-width:0.1685;}
	.st4{fill:none;stroke:#000000;stroke-width:0.1942;}
	.st5{fill:none;stroke:#000000;stroke-width:0.1734;}
	.st6{fill:none;stroke:#000000;stroke-width:0.413;}
	.st7{fill:none;stroke:#000000;stroke-width:0.2185;}
	.st8{fill:none;stroke:#000000;stroke-width:0.2084;}
	.st9{fill:none;stroke:#000000;stroke-width:0.1781;}
	.st10{fill:none;stroke:#000000;stroke-width:0.2042;}
	.st11{fill:none;stroke:#000000;stroke-width:0.2407;}
	.st12{fill:none;stroke:#000000;stroke-width:0.6072;}
	.st13{fill:none;stroke:#000000;stroke-width:0.2171;}
	.st14{fill:none;stroke:#000000;stroke-width:0.2079;}
	.st15{fill:none;stroke:#000000;stroke-width:0.1718;}
	.st16{fill:none;stroke:#000000;stroke-width:0.1359;}
</style>
<image style="display:none;overflow:visible;enable-background:new    ;" width="1920" height="6480" xlink:href="85486B36.png"  transform="matrix(1 0 0 1 0 -0.5854)">
</image>
<image style="display:none;overflow:visible;enable-background:new    ;" width="2560" height="1440" xlink:href="85486B37.jpg"  transform="matrix(0.7495 0 0 0.7495 0.7433 1080.5704)">
</image>
<image style="display:none;overflow:visible;opacity:0.52;enable-background:new    ;" width="1920" height="6480" xlink:href="../../../../../../../../../../Bureaublad/hop king rework 3.jpg"  transform="matrix(1 0 0 1 0 -0.2927)">
</image>
<sodipodi:namedview  bordercolor="#666666" borderopacity="1" gridtolerance="10" guidetolerance="10" id="namedview3338" inkscape:current-layer="svg3336" inkscape:cx="406.11329" inkscape:cy="249.46545" inkscape:pageopacity="0" inkscape:pageshadow="2" inkscape:window-height="997" inkscape:window-maximized="1" inkscape:window-width="1680" inkscape:window-x="-8" inkscape:window-y="-8" inkscape:zoom="1.1709688" objecttolerance="10" pagecolor="#ffffff" showgrid="false">
	</sodipodi:namedview>
<path id="path3348" inkscape:connector-curvature="0" class="st0" d="M0.1,5954.1l473.7,1.9v450l1069.5,1.9v-460.1l375.3,3.9
	l1.2,527.7H2.1L0.1,5954.1z"/>
<path id="path3348_00000136399105451146424140000008231638428751389117_" inkscape:connector-curvature="0" class="st1" d="
	M690.8,5576.1h132.9l0,0h300l0,0H1229l0.3,148h-538L690.8,5576.1z"/>
<path id="path3348_00000096778021197365095550000005961481254034084275_" inkscape:connector-curvature="0" class="st2" d="
	M93.3,5118.4h80.1l0,0h180.9l0,0h63.5l0.2,26.7H93.6L93.3,5118.4z"/>
<path id="path3348_00000145018886900349667260000011291858138052198285_" inkscape:connector-curvature="0" class="st3" d="
	M962,4791.7h51.6l0,0h116.6l0,0h40.9l0.1,26.7H962.3L962,4791.7z"/>
<path id="path3348_00000076600833451214210740000014247361172788982702_" inkscape:connector-curvature="0" class="st4" d="
	M518.5,4523h68.6l0,0H742l0,0h54.3l0.2,26.7H518.8L518.5,4523z"/>
<path id="path3348_00000136390422746972183320000015154641012806438020_" inkscape:connector-curvature="0" class="st5" d="
	M1127.4,4419.4h54.7l0,0h123.5l0,0h43.3l0.1,26.7h-221.4L1127.4,4419.4z"/>
<path id="path3348_00000157987273090760083390000008072241302071000498_" inkscape:connector-curvature="0" class="st6" d="
	M1483,4037.5h108l0,0h243.9l0,0h85.6l0.3,76.8h-437.3L1483,4037.5z"/>
<path id="path3348_00000137124141284070254620000002018877585034277547_" inkscape:connector-curvature="0" class="st7" d="
	M634,3943.5h40.4l0,0h91.3l0,0h32l0.1,57.5H634.1L634,3943.5z"/>
<path id="path3348_00000124140107141103482970000010547475429395988918_" inkscape:connector-curvature="0" class="st8" d="
	M-0.1,3678.4h36.8l0,0h83l0,0h29.1l0.1,57.5H0.1L-0.1,3678.4z"/>
<path id="path3348_00000143605237866700918460000010025490510294885818_" inkscape:connector-curvature="0" class="st9" d="
	M629.2,3405.4H656l0,0h60.6l0,0h21.3l0.1,57.5H629.3L629.2,3405.4z"/>
<path id="path3348_00000099649854502743993080000015038419912967601325_" inkscape:connector-curvature="0" class="st10" d="
	M902.8,2015.5h22.8H956V1963h55.3v52.5h50.2l0.1,51.7H903L902.8,2015.5z"/>
<path id="path3348_00000042723183384269020010000015978485008820199857_" inkscape:connector-curvature="0" class="st11" d="
	M1822.1,1584.1v-56.4h112.8l0.1,56.4H1822.1z"/>
<path id="path3348_00000170245770614199887860000014949110038293369783_" inkscape:connector-curvature="0" class="st12" d="
	M1918.2,1154.4v451.5v-154.5v1019.3v154.5v357.7l-39.7,1.2V1156.2L1552,835l2.3-53.3l-542-0.6v-64.5h908.5L1918.2,1154.4z"/>
<path id="path3348_00000003074531196358043550000014741068071908706734_" inkscape:connector-curvature="0" class="st13" d="
	M1552.1,2715.5v-93.6l0,0v-211.4l0,0v-74.2l24.5-0.2v379L1552.1,2715.5z"/>
<path id="path3348_00000142894591688711441110000001990222913103754939_" inkscape:connector-curvature="0" class="st14" d="
	M1443.5,1204.4v40.2l0,0v56l0,0v3l-52.3,0.1v-99.1L1443.5,1204.4z"/>
<path id="path3348_00000159442993634239853100000000489264613611867559_" inkscape:connector-curvature="0" class="st15" d="
	M1120,997.3v16.6l0,0v23.1l0,0v13.2h-86.4v-52.9L1120,997.3z"/>
<path id="path3348_00000044888171425574917670000010391849722575437960_" inkscape:connector-curvature="0" class="st16" d="
	M852.2,997.3v16.6l0,0v23.1l0,0v13.2h-54.1v-52.9L852.2,997.3z"/>
<path id="path3348_00000068636912662967546600000002207169500818243739_" inkscape:connector-curvature="0" class="st16" d="
	M852.2,726.1v16.6l0,0v23.1l0,0V779h-54.1v-52.9H852.2z"/>
</svg>
