<?xml version="1.0" encoding="utf-8"?>
<!-- Generator: Adobe Illustrator 26.3.1, SVG Export Plug-In . SVG Version: 6.00 Build 0)  -->
<svg version="1.1" id="Layer_4" xmlns="http://www.w3.org/2000/svg" xmlns:xlink="http://www.w3.org/1999/xlink" x="0px" y="0px"
	 viewBox="0 0 1920 6479.4" style="enable-background:new 0 0 1920 6479.4;" xml:space="preserve">
<style type="text/css">
	.st0{fill:none;stroke:#000000;stroke-width:0.2949;}
	.st1{fill:none;stroke:#000000;stroke-width:0.1473;}
	.st2{fill:none;stroke:#000000;stroke-width:0.2026;}
	.st3{fill:none;stroke:#000000;stroke-width:0.2079;}
	.st4{fill:none;stroke:#000000;stroke-width:0.1718;}
</style>
<path id="path3348_00000103245274831616965310000013347140864407856796_" class="st0" d="M1173.3,2984.5h80.9l0,0h182.5l0,0h64.1
	l0.2,52.3h-327.4L1173.3,2984.5z"/>
<path id="path3348_00000173137788644311825120000003188018030751153843_" class="st1" d="M763.2,2708.8h23.6l0,0h53.3l0,0h18.7
	l0.1,44.7h-95.6L763.2,2708.8z"/>
<path id="path3348_00000159429118598581136610000011586795139221125289_" class="st1" d="M110.5,2354.7h23.6l0,0h53.3l0,0h18.7
	l0.1,44.7h-95.6L110.5,2354.7z"/>
<path id="path3348_00000036228942799147056600000001354836491105795752_" class="st1" d="M1375.8,1640.7h23.6l0,0h53.3l0,0h18.7
	l0.1,44.7h-95.6L1375.8,1640.7z"/>
<path id="path3348_00000085947890732121786760000006142459045119141041_" class="st1" d="M1100.2,1693.5h23.6l0,0h53.3l0,0h18.7
	l0.1,44.7h-95.6L1100.2,1693.5z"/>
<path id="path3348_00000124872961669210567220000005267614709178244997_" class="st1" d="M718.3,1746.9h23.6l0,0h53.3l0,0h18.7
	l0.1,44.7h-95.6L718.3,1746.9z"/>
<path id="path3348_00000059282055574184236340000012030898902339625393_" class="st2" d="M1765.9,2984.5h38.2l0,0h86.2l0,0h30.2
	l0.1,52.3H1766L1765.9,2984.5z"/>
<path id="path3348_00000110453150115768831950000003205760889373808280_" class="st3" d="M1768,2445.4h40.2l0,0h90.8l0,0h31.9
	l0.1,52.3h-162.8L1768,2445.4z"/>
<path id="path3348_00000026143844354586662040000006964855658265936258_" class="st3" d="M1439.6,2284.7h40.2l0,0h90.8l0,0h31.9
	l0.1,52.3h-162.8L1439.6,2284.7z"/>
<path id="path3348_00000062871451188240516200000006427584893510468763_" class="st3" d="M1551.1,2714.1h40.2l0,0h90.8l0,0h31.9
	l0.1,52.3h-162.8L1551.1,2714.1z"/>
<path id="path3348_00000062173754226692258610000008614009312262635167_" class="st4" d="M1012.9,1148v16.6l0,0v23.1l0,0v20.7
	l-216.3,214.9h-57.8L1012.9,1148z"/>
<path id="path3348_00000031200068266662513510000013920331506468496264_" class="st4" d="M1941.9,1460.2v16.6l0,0v23.1l0,0v20.7
	l-390.2,386.9h-58.2L1941.9,1460.2z"/>
</svg>
